<?xml version="1.0" standalone="no"?><svg xmlns="http://www.w3.org/2000/svg" viewBox="0 0 1440 320"><path fill="#0099ff" fill-opacity="1" d="M0,64L0,128L36.9,128L36.9,320L73.8,320L73.8,320L110.8,320L110.8,224L147.7,224L147.7,256L184.6,256L184.6,256L221.5,256L221.5,256L258.5,256L258.5,224L295.4,224L295.4,192L332.3,192L332.3,160L369.2,160L369.2,64L406.2,64L406.2,192L443.1,192L443.1,160L480,160L480,160L516.9,160L516.9,160L553.8,160L553.8,288L590.8,288L590.8,32L627.7,32L627.7,224L664.6,224L664.6,256L701.5,256L701.5,160L738.5,160L738.5,288L775.4,288L775.4,0L812.3,0L812.3,96L849.2,96L849.2,320L886.2,320L886.2,128L923.1,128L923.1,192L960,192L960,64L996.9,64L996.9,32L1033.8,32L1033.8,64L1070.8,64L1070.8,160L1107.7,160L1107.7,288L1144.6,288L1144.6,32L1181.5,32L1181.5,64L1218.5,64L1218.5,224L1255.4,224L1255.4,64L1292.3,64L1292.3,224L1329.2,224L1329.2,96L1366.2,96L1366.2,192L1403.1,192L1403.1,288L1440,288L1440,320L1403.1,320L1403.1,320L1366.2,320L1366.2,320L1329.2,320L1329.2,320L1292.3,320L1292.3,320L1255.4,320L1255.4,320L1218.5,320L1218.5,320L1181.5,320L1181.5,320L1144.6,320L1144.6,320L1107.7,320L1107.7,320L1070.8,320L1070.8,320L1033.8,320L1033.8,320L996.9,320L996.9,320L960,320L960,320L923.1,320L923.1,320L886.2,320L886.2,320L849.2,320L849.2,320L812.3,320L812.3,320L775.4,320L775.4,320L738.5,320L738.5,320L701.5,320L701.5,320L664.6,320L664.6,320L627.7,320L627.7,320L590.8,320L590.8,320L553.8,320L553.8,320L516.9,320L516.9,320L480,320L480,320L443.1,320L443.1,320L406.2,320L406.2,320L369.2,320L369.2,320L332.3,320L332.3,320L295.4,320L295.4,320L258.5,320L258.5,320L221.5,320L221.5,320L184.6,320L184.6,320L147.7,320L147.7,320L110.8,320L110.8,320L73.8,320L73.8,320L36.9,320L36.9,320L0,320L0,320Z"></path></svg>