<?xml version="1.0" encoding="utf-8"?>
<!-- Generator: Adobe Illustrator 24.0.0, SVG Export Plug-In . SVG Version: 6.00 Build 0)  -->
<svg version="1.1" id="Layer_1" xmlns="http://www.w3.org/2000/svg" xmlns:xlink="http://www.w3.org/1999/xlink" x="0px" y="0px"
	 viewBox="0 0 698 698" style="enable-background:new 0 0 698 698;" xml:space="preserve">
<style type="text/css">
	.st0{fill:#419751;}
	.st1{fill:#6C6332;}
	.st2{fill:#333333;}
	.st3{opacity:0.1;enable-background:new    ;}
	.st4{fill:#FDB797;}
</style>
<g id="_x34_57bf273-24a3-4fd8-a857-e9b918267d6a">
	<title>profile pic</title>
	<ellipse class="st0" cx="363" cy="323.9" rx="258" ry="258"/>
	<path class="st1" d="M364.7,581.9c66.8,0.1,132.1-19.4,187.8-56.2C539.9,456.9,492,453,492,453H227.7c0,0-45.2,3.7-59.3,67
		C225.9,560.4,294.4,582,364.7,581.9z"/>
	<circle class="st2" cx="361" cy="231.7" r="164.9"/>
	<path class="st3" d="M307.8,369.1h105.7l0,0v84.5c0,29.2-23.6,52.8-52.8,52.8l0,0c-29.2,0-52.8-23.7-52.8-52.8l0,0L307.8,369.1
		L307.8,369.1L307.8,369.1z"/>
	<path class="st4" d="M311.2,365.1h99c1.9,0,3.4,1.5,3.4,3.4l0,0v81.2c0,29.2-23.6,52.8-52.8,52.8l0,0l0,0
		c-29.2,0-52.8-23.7-52.8-52.8l0,0v-81.2C307.8,366.7,309.3,365.2,311.2,365.1z"/>
	<path class="st3" d="M308,409c34.1,12.7,71.5,12.8,105.7,0.3v-13H308V409z"/>
	<circle class="st4" cx="361" cy="264.6" r="151.5"/>
	<path class="st3" d="M253.1,126.8c0,0,63.8,129.6,243.9,54.3l-41.9-65.7l-74.3-26.7L253.1,126.8z"/>
	<path class="st2" d="M253.1,124.9c0,0,63.8,129.6,243.9,54.3l-41.9-65.7l-74.3-26.7L253.1,124.9z"/>
	<path class="st2" d="M252.6,116.1c4.3-13.3,11.7-25.4,21.7-35.3c29.8-29.5,78.6-35.7,103.7-69.2c6,9.3,1.4,23.6-9,27.6
		c24-0.2,51.8-2.3,65.4-22c6.8,15.9,3.9,34.4-7.6,47.4c21.3,1,44,15.4,45.3,36.6c0.9,14.2-8,27.6-19.6,35.7s-25.7,11.9-39.6,14.9
		C372.5,160.8,226.2,198.2,252.6,116.1z"/>
	<ellipse class="st4" cx="209.5" cy="264.4" rx="14.1" ry="26.4"/>
	<ellipse class="st4" cx="512.5" cy="264.4" rx="14.1" ry="26.4"/>
</g>
</svg>
